<svg width="24" height="25" viewBox="0 0 24 25" fill="none" xmlns="http://www.w3.org/2000/svg">
<g clip-path="url(#clip0_241_316)">
<g clip-path="url(#clip1_241_316)">
<path d="M12 13.934C9.77998 13.934 7.66798 13.232 5.89198 11.912C5.44799 11.582 5.32199 10.97 5.59799 10.49C6.12599 9.578 10.41 2.156 11.052 1.046C11.244 0.71 11.61 0.5 11.994 0.5C12.384 0.5 12.744 0.71 12.936 1.046L18.39 10.496C18.666 10.976 18.54 11.588 18.096 11.918C16.32 13.244 14.208 13.94 11.988 13.94L12 13.934ZM8.00398 10.694C9.21598 11.39 10.578 11.756 12 11.756C13.422 11.756 14.784 11.39 15.996 10.694L12 3.776C10.824 5.81 8.93998 9.074 8.00398 10.694Z" fill="#161616"/>
<path d="M22.908 24.5H1.09201C0.702012 24.5 0.342012 24.29 0.150012 23.954C-0.041988 23.618 -0.041988 23.198 0.150012 22.862L4.54801 15.248C4.70401 14.978 4.96801 14.786 5.27401 14.726C5.58001 14.666 5.89801 14.732 6.14401 14.918C7.84801 16.19 9.87601 16.862 12.006 16.862C14.136 16.862 16.164 16.19 17.868 14.918C18.12 14.732 18.432 14.66 18.738 14.726C19.044 14.792 19.308 14.978 19.464 15.248L23.862 22.862C24.054 23.198 24.054 23.618 23.862 23.954C23.67 24.29 23.304 24.5 22.92 24.5H22.908ZM2.98201 22.316H21.024L18.156 17.348C16.302 18.458 14.196 19.04 12.006 19.04C9.81601 19.04 7.71001 18.458 5.85601 17.348L2.98801 22.316H2.98201Z" fill="#161616"/>
</g>
</g>
<defs>
<clipPath id="clip0_241_316">
<rect width="24" height="24" fill="white" transform="translate(0 0.5)"/>
</clipPath>
<clipPath id="clip1_241_316">
<rect width="24" height="24" fill="white" transform="translate(0 0.5)"/>
</clipPath>
</defs>
</svg>

