<svg xmlns="http://www.w3.org/2000/svg" width="37" height="38" viewBox="0 0 37 38" fill="none">
  <path d="M18.5 21.1864C15.1515 21.1864 11.8031 20.1773 9.1244 17.9909C8.45471 17.6545 8.28729 16.6455 8.62213 15.9727C9.45924 14.6273 15.9886 3.19091 16.9932 1.34091C17.328 0.836364 17.8303 0.5 18.5 0.5C19.1696 0.5 19.6719 0.836364 20.0067 1.34091L28.3778 15.9727C28.88 16.6455 28.5452 17.6545 27.8755 18.1591C25.1968 20.1773 21.8484 21.1864 18.5 21.1864ZM12.3054 16.1409C14.147 17.15 16.3235 17.8227 18.5 17.8227C20.6764 17.8227 22.8529 17.3182 24.6945 16.1409L18.5 5.54545C16.6583 8.74091 13.8122 13.7864 12.3054 16.1409Z" fill="#161616"/>
  <path d="M35.2421 37.5H1.75792C1.08824 37.5 0.585973 37.1637 0.251131 36.6591C-0.0837104 36.1546 -0.0837104 35.4818 0.251131 34.9773L6.94796 23.2046C7.11539 22.8682 7.61765 22.5318 8.11991 22.3637C8.62217 22.1955 9.12443 22.3637 9.45928 22.7C12.138 24.7182 15.1516 25.7273 18.5 25.7273C21.8484 25.7273 24.862 24.7182 27.5407 22.7C27.8756 22.3637 28.3778 22.3637 28.8801 22.3637C29.3824 22.5318 29.7172 22.7 30.052 23.2046L36.7489 34.9773C37.0837 35.4818 37.0837 36.1546 36.7489 36.6591C36.414 37.1637 35.9118 37.5 35.2421 37.5ZM4.60407 34.1364H32.2285L27.8756 26.4C25.0294 28.25 21.8484 29.0909 18.5 29.0909C15.1516 29.0909 11.9706 28.25 9.12444 26.4L4.60407 34.1364Z" fill="#161616"/>
</svg>