<svg width="274" height="50" viewBox="0 0 274 50" fill="none" xmlns="http://www.w3.org/2000/svg">
<g clipPath="url(#clip0_278_474)">
<g clipPath="url(#clip1_278_474)">
<path d="M25.7334 27.9545C21.1909 27.9545 16.6485 26.5909 13.0146 23.6364C12.1061 23.1818 11.879 21.8182 12.3332 20.9091C13.4688 19.0909 22.3265 3.63636 23.6893 1.13636C24.1435 0.454545 24.8249 0 25.7334 0C26.6419 0 27.3232 0.454545 27.7775 1.13636L39.1335 20.9091C39.8149 21.8182 39.3607 23.1818 38.4522 23.8636C34.8182 26.5909 30.2758 27.9545 25.7334 27.9545ZM17.3299 21.1364C19.8282 22.5 22.7808 23.4091 25.7334 23.4091C28.6859 23.4091 31.6385 22.7273 34.1369 21.1364L25.7334 6.81818C23.235 11.1364 19.374 17.9545 17.3299 21.1364Z" fill="black"/>
<path d="M48.4455 50H3.02122C2.11273 50 1.43137 49.5455 0.977126 48.8636C0.522883 48.1818 0.522883 47.2727 0.977126 46.5909L10.062 30.6818C10.2891 30.2273 10.9705 29.7727 11.6518 29.5455C12.3332 29.3182 13.0146 29.5455 13.4688 30C17.1028 32.7273 21.1909 34.0909 25.7334 34.0909C30.2758 34.0909 34.364 32.7273 37.9979 30C38.4522 29.5455 39.1335 29.5455 39.8149 29.5455C40.4963 29.7727 40.9505 30 41.4047 30.6818L50.4896 46.5909C50.9438 47.2727 50.9438 48.1818 50.4896 48.8636C50.0354 49.5455 49.354 50 48.4455 50ZM6.88228 45.4545H44.3573L38.4522 35C34.5911 37.5 30.2758 38.6364 25.7334 38.6364C21.1909 38.6364 16.8756 37.5 13.0146 35L6.88228 45.4545Z" fill="black"/>
<path d="M63.2084 40.9091L75.9272 8.63637H80.0154L92.7342 40.9091H86.829L77.9713 16.5909L68.8864 40.9091H63.2084ZM71.1577 34.0909L72.7475 29.3182H82.968L84.7849 34.0909H71.1577Z" fill="black"/>
<path d="M96.141 40.9091V18.1818H101.365V24.3182L100.456 24.5455C100.683 23.1818 101.138 22.0455 101.819 21.1364C102.5 20.2273 103.409 19.3182 104.545 18.8636C105.68 18.1818 106.589 17.9546 107.724 17.9546C108.406 17.9546 109.087 17.9546 109.768 18.1818C110.45 18.4091 111.131 18.6364 111.812 19.0909L109.314 23.6364C109.087 23.4091 108.633 23.1818 107.951 23.1818C107.497 22.9546 106.816 22.7273 106.361 22.7273C105.68 22.7273 104.999 22.9546 104.545 23.1818C103.863 23.4091 103.409 23.8636 102.955 24.3182C102.5 24.7727 102.046 25.4546 101.819 26.3636C101.592 26.8182 101.592 27.2727 101.365 27.9546C101.365 28.6364 101.138 29.5455 101.138 30.9091V40.9091H96.141Z" fill="black"/>
<path d="M112.948 22.0455V18.1818H127.484V22.0455H112.948ZM123.85 41.3636C122.714 41.3636 121.579 41.1364 120.67 40.6818C119.762 40.2273 118.853 39.5455 118.399 38.4091C117.718 37.5 117.49 36.1364 117.49 34.5455V12.5L122.714 9.54546V32.9545C122.714 34.3182 122.941 35.2273 123.396 35.9091C123.85 36.5909 124.531 37.0455 125.44 37.0455C125.667 37.0455 126.121 37.0455 126.575 36.8182C127.03 36.8182 127.484 36.5909 127.938 36.5909V40.4545C127.257 40.6818 126.802 40.9091 126.121 40.9091C124.985 41.1364 124.531 41.3636 123.85 41.3636Z" fill="black"/>
<path d="M142.474 40.9091L129.528 8.63637H135.433L145.199 34.3182H143.837L153.603 8.63637H159.508L146.562 40.9091H142.474Z" fill="black"/>
<path d="M162.688 14.3182V8.63637H168.366V14.3182H162.688ZM162.915 40.9091V18.1818H168.139V40.9091H162.915Z" fill="black"/>
<path d="M183.81 41.3636C181.993 41.3636 180.176 41.1364 178.813 40.4545C177.451 39.7727 176.315 38.8636 175.406 37.9546C174.498 36.8182 173.817 35.6818 173.362 34.0909C172.908 32.7273 172.681 31.1364 172.681 29.7727C172.681 28.1818 172.908 26.8182 173.362 25.4546C173.817 24.0909 174.498 22.7273 175.179 21.5909C176.088 20.4546 177.223 19.5455 178.586 18.8636C179.949 18.1818 181.539 17.9546 183.356 17.9546C185.173 17.9546 186.535 18.1818 187.898 18.8636C189.261 19.5455 190.396 20.2273 191.078 21.3636C191.986 22.5 192.668 23.6364 192.895 25C193.349 26.3636 193.576 27.7273 193.576 29.3182C193.576 29.5455 193.576 29.7727 193.576 30.2273C193.576 30.6818 193.576 31.1364 193.349 31.3636H177.905C178.132 33.1818 178.586 34.5455 179.722 35.4546C180.857 36.3636 182.22 36.8182 184.037 36.8182C185.4 36.8182 186.535 36.5909 187.444 36.1364C188.579 35.6818 189.488 35 190.396 34.3182L193.122 37.7273C192.213 38.6364 191.305 39.3182 190.169 39.7727C189.261 40.2273 188.125 40.6818 187.217 40.9091C186.308 41.1364 185.173 41.3636 183.81 41.3636ZM188.807 28.6364C188.807 28.4091 188.807 28.1818 189.034 27.9546C189.034 27.7273 189.034 27.5 189.034 27.2727C189.034 26.5909 188.807 25.9091 188.579 25.2273C188.352 24.5455 187.898 24.0909 187.444 23.6364C186.99 23.1818 186.308 22.7273 185.627 22.5C184.946 22.2727 184.264 22.0455 183.356 22.0455C182.22 22.0455 181.084 22.2727 180.403 22.7273C179.495 23.1818 179.04 23.8636 178.586 24.7727C178.132 25.6818 177.905 26.3636 177.678 27.5H190.396L188.807 28.6364Z" fill="black"/>
<path d="M203.569 40.9091L196.756 18.1818H202.207L206.295 33.1818L210.837 18.1818H215.153L219.695 32.9546L224.01 18.1818H229.461L222.421 40.9091H217.878L213.109 25.4546L208.339 40.9091H203.569Z" fill="black"/>
<path d="M243.089 41.3636C241.272 41.3636 239.455 41.1364 238.092 40.4545C236.729 39.7727 235.594 38.8636 234.685 37.9546C233.777 36.8182 233.095 35.6818 232.641 34.0909C232.187 32.7273 231.96 31.1364 231.96 29.7727C231.96 28.1818 232.187 26.8182 232.641 25.4546C233.095 24.0909 233.777 22.7273 234.458 21.5909C235.366 20.4546 236.502 19.5455 237.865 18.8636C239.228 18.1818 240.817 17.9546 242.634 17.9546C244.451 17.9546 245.814 18.1818 247.177 18.8636C248.54 19.5455 249.675 20.2273 250.356 21.3636C251.265 22.5 251.946 23.6364 252.173 25C252.628 26.3636 252.855 27.7273 252.855 29.3182C252.855 29.5455 252.855 29.7727 252.855 30.2273C252.855 30.6818 252.855 31.1364 252.628 31.3636H236.956C237.183 33.1818 237.638 34.5455 238.773 35.4546C239.909 36.3636 241.272 36.8182 243.089 36.8182C244.451 36.8182 245.587 36.5909 246.495 36.1364C247.631 35.6818 248.54 35 249.448 34.3182L252.173 37.7273C251.265 38.6364 250.356 39.3182 249.221 39.7727C248.312 40.2273 247.177 40.6818 246.268 40.9091C245.587 41.1364 244.451 41.3636 243.089 41.3636ZM248.085 28.6364C248.085 28.4091 248.085 28.1818 248.312 27.9546C248.312 27.7273 248.312 27.5 248.312 27.2727C248.312 26.5909 248.085 25.9091 247.858 25.2273C247.631 24.5455 247.177 24.0909 246.723 23.6364C246.268 23.1818 245.587 22.7273 244.906 22.5C244.224 22.2727 243.543 22.0455 242.634 22.0455C241.499 22.0455 240.363 22.2727 239.682 22.7273C238.773 23.1818 238.319 23.8636 237.865 24.7727C237.411 25.6818 237.183 26.3636 236.956 27.5H249.675L248.085 28.6364Z" fill="black"/>
<path d="M258.079 40.9091V18.1818H263.302V24.3182L262.394 24.5455C262.621 23.1818 263.075 22.0455 263.757 21.1364C264.438 20.2273 265.347 19.3182 266.482 18.8636C267.618 18.1818 268.526 17.9546 269.662 17.9546C270.343 17.9546 271.025 17.9546 271.706 18.1818C272.387 18.4091 273.069 18.6364 273.75 19.0909L271.252 23.6364C271.025 23.4091 270.57 23.1818 269.889 23.1818C269.435 22.9546 268.753 22.9546 268.299 22.9546C267.618 22.9546 266.936 23.1818 266.482 23.4091C265.801 23.6364 265.347 24.0909 264.892 24.5455C264.438 25 263.984 25.6818 263.757 26.5909C263.53 27.0455 263.53 27.5 263.302 28.1818C263.302 28.8636 263.075 29.7727 263.075 31.1364V40.9091H258.079Z" fill="black"/>
</g>
</g>
<defs>
<clipPath id="clip0_278_474">
<rect width="273" height="50" fill="white" transform="translate(0.75)"/>
</clipPath>
<clipPath id="clip1_278_474">
<rect width="273" height="50" fill="white" transform="translate(0.75)"/>
</clipPath>
</defs>
</svg>
