<svg width="208" height="48" viewBox="0 0 208 48" fill="none" xmlns="http://www.w3.org/2000/svg">
<g clip-path="url(#clip0_1137_1181)">
<path d="M19.035 26.1864C15.5741 26.1864 12.1132 25.1773 9.34452 22.9909C8.65234 22.6545 8.4793 21.6455 8.82539 20.9727C9.69061 19.6273 16.4394 8.19091 17.4776 6.34091C17.8237 5.83636 18.3429 5.5 19.035 5.5C19.7272 5.5 20.2464 5.83636 20.5924 6.34091L29.2447 20.9727C29.7638 21.6455 29.4177 22.6545 28.7256 23.1591C25.9568 25.1773 22.4959 26.1864 19.035 26.1864ZM12.6324 21.1409C14.5359 22.15 16.7855 22.8227 19.035 22.8227C21.2846 22.8227 23.5342 22.3182 25.4377 21.1409L19.035 10.5455C17.1315 13.7409 14.1898 18.7864 12.6324 21.1409Z" fill="white"/>
<path d="M36.3395 42.4999H1.73055C1.03837 42.4999 0.519231 42.1636 0.173142 41.659C-0.172948 41.1545 -0.172948 40.4818 0.173142 39.9772L7.09494 28.2045C7.26798 27.8681 7.78712 27.5318 8.30625 27.3636C8.82539 27.1954 9.34452 27.3636 9.69061 27.6999C12.4593 29.7181 15.5741 30.7272 19.035 30.7272C22.4959 30.7272 25.6107 29.7181 28.3795 27.6999C28.7256 27.3636 29.2447 27.3636 29.7638 27.3636C30.283 27.5318 30.629 27.6999 30.9751 28.2045L37.8969 39.9772C38.243 40.4818 38.243 41.1545 37.8969 41.659C37.5508 42.1636 37.0317 42.4999 36.3395 42.4999ZM4.67231 39.1363H33.2247L28.7256 31.3999C25.7838 33.2499 22.4959 34.0909 19.035 34.0909C15.5741 34.0909 12.2863 33.2499 9.34452 31.3999L4.67231 39.1363Z" fill="white"/>
<path d="M47.5874 35.7727L57.2779 11.8909H60.3927L70.0832 35.7727H65.5841L58.8353 17.7772L51.9135 35.7727H47.5874ZM53.644 30.7272L54.8553 27.1954H62.6423L64.0267 30.7272H53.644Z" fill="white"/>
<path d="M72.6787 35.7727V18.9546H76.6587V23.4955L75.9666 23.6637C76.1396 22.6546 76.4857 21.8136 77.0048 21.1409C77.524 20.4682 78.2162 19.7955 79.0814 19.4591C79.9466 18.9546 80.6388 18.7864 81.504 18.7864C82.0231 18.7864 82.5423 18.7864 83.0614 18.9546C83.5805 19.1227 84.0997 19.2909 84.6188 19.6273L82.7153 22.9909C82.5423 22.8227 82.1962 22.6546 81.677 22.6546C81.331 22.4864 80.8118 22.3182 80.4657 22.3182C79.9466 22.3182 79.4275 22.4864 79.0814 22.6546C78.5622 22.8227 78.2161 23.1591 77.8701 23.4955C77.524 23.8318 77.1779 24.3364 77.0048 25.0091C76.8318 25.3455 76.8318 25.6818 76.6587 26.1864C76.6587 26.6909 76.4857 27.3637 76.4857 28.3727V35.7727H72.6787Z" fill="white"/>
<path d="M85.4844 21.8136V18.9545H96.5592V21.8136H85.4844ZM93.7905 36.1091C92.9253 36.1091 92.0601 35.9409 91.3679 35.6045C90.6757 35.2681 89.9835 34.7636 89.6374 33.9227C89.1183 33.25 88.9453 32.2409 88.9453 31.0636V14.75L92.9253 12.5636V29.8863C92.9253 30.8954 93.0983 31.5681 93.4444 32.0727C93.7905 32.5772 94.3097 32.9136 95.0018 32.9136C95.1749 32.9136 95.521 32.9136 95.8671 32.7454C96.2132 32.7454 96.5592 32.5772 96.9053 32.5772V35.4363C96.3862 35.6045 96.0401 35.7727 95.521 35.7727C94.6558 35.9409 94.3097 36.1091 93.7905 36.1091Z" fill="white"/>
<path d="M107.98 35.7727L98.1167 11.8909H102.616L110.057 30.8954H109.019L116.459 11.8909H120.959L111.095 35.7727H107.98Z" fill="white"/>
<path d="M123.381 16.0954V11.8909H127.707V16.0954H123.381ZM123.554 35.7727V18.9545H127.534V35.7727H123.554Z" fill="white"/>
<path d="M139.474 36.1091C138.09 36.1091 136.706 35.9409 135.667 35.4364C134.629 34.9318 133.764 34.2591 133.072 33.5864C132.379 32.7455 131.86 31.9046 131.514 30.7273C131.168 29.7182 130.995 28.5409 130.995 27.5318C130.995 26.3546 131.168 25.3455 131.514 24.3364C131.86 23.3273 132.379 22.3182 132.899 21.4773C133.591 20.6364 134.456 19.9636 135.494 19.4591C136.533 18.9546 137.744 18.7864 139.128 18.7864C140.513 18.7864 141.551 18.9546 142.589 19.4591C143.627 19.9636 144.493 20.4682 145.012 21.3091C145.704 22.15 146.223 22.9909 146.396 24C146.742 25.0091 146.915 26.0182 146.915 27.1955C146.915 27.3636 146.915 27.5318 146.915 27.8682C146.915 28.2046 146.915 28.5409 146.742 28.7091H134.975C135.148 30.0546 135.494 31.0637 136.36 31.7364C137.225 32.4091 138.263 32.7455 139.647 32.7455C140.686 32.7455 141.551 32.5773 142.243 32.2409C143.108 31.9046 143.8 31.4 144.493 30.8955L146.569 33.4182C145.877 34.0909 145.185 34.5955 144.32 34.9318C143.627 35.2682 142.762 35.6046 142.07 35.7727C141.378 35.9409 140.513 36.1091 139.474 36.1091ZM143.281 26.6909C143.281 26.5227 143.281 26.3546 143.454 26.1864C143.454 26.0182 143.454 25.85 143.454 25.6818C143.454 25.1773 143.281 24.6727 143.108 24.1682C142.935 23.6637 142.589 23.3273 142.243 22.9909C141.897 22.6546 141.378 22.3182 140.859 22.15C140.34 21.9818 139.82 21.8136 139.128 21.8136C138.263 21.8136 137.398 21.9818 136.879 22.3182C136.186 22.6546 135.84 23.1591 135.494 23.8318C135.148 24.5046 134.975 25.0091 134.802 25.85H144.493L143.281 26.6909Z" fill="white"/>
<path d="M154.529 35.7726L149.338 18.9545H153.491L156.606 30.0545L160.067 18.9545H163.355L166.815 29.8863L170.103 18.9545H174.256L168.892 35.7726H165.431L161.797 24.3363L158.163 35.7726H154.529Z" fill="white"/>
<path d="M184.639 36.1091C183.254 36.1091 181.87 35.9409 180.832 35.4364C179.794 34.9318 178.928 34.2591 178.236 33.5864C177.544 32.7455 177.025 31.9046 176.679 30.7273C176.333 29.7182 176.16 28.5409 176.16 27.5318C176.16 26.3546 176.333 25.3455 176.679 24.3364C177.025 23.3273 177.544 22.3182 178.063 21.4773C178.755 20.6364 179.621 19.9636 180.659 19.4591C181.697 18.9546 182.908 18.7864 184.293 18.7864C185.677 18.7864 186.715 18.9546 187.754 19.4591C188.792 19.9636 189.657 20.4682 190.176 21.3091C190.868 22.15 191.388 22.9909 191.561 24C191.907 25.0091 192.08 26.0182 192.08 27.1955C192.08 27.3636 192.08 27.5318 192.08 27.8682C192.08 28.2046 192.08 28.5409 191.907 28.7091H179.967C180.14 30.0546 180.486 31.0637 181.351 31.7364C182.216 32.4091 183.254 32.7455 184.639 32.7455C185.677 32.7455 186.542 32.5773 187.235 32.2409C188.1 31.9046 188.792 31.4 189.484 30.8955L191.561 33.4182C190.868 34.0909 190.176 34.5955 189.311 34.9318C188.619 35.2682 187.754 35.6046 187.061 35.7727C186.542 35.9409 185.677 36.1091 184.639 36.1091ZM188.446 26.6909C188.446 26.5227 188.446 26.3546 188.619 26.1864C188.619 26.0182 188.619 25.85 188.619 25.6818C188.619 25.1773 188.446 24.6727 188.273 24.1682C188.1 23.6637 187.754 23.3273 187.408 22.9909C187.061 22.6546 186.542 22.3182 186.023 22.15C185.504 21.9818 184.985 21.8136 184.293 21.8136C183.428 21.8136 182.562 21.9818 182.043 22.3182C181.351 22.6546 181.005 23.1591 180.659 23.8318C180.313 24.5046 180.14 25.0091 179.967 25.85H189.657L188.446 26.6909Z" fill="white"/>
<path d="M196.06 35.7727V18.9546H200.04V23.4955L199.348 23.6637C199.521 22.6546 199.867 21.8136 200.386 21.1409C200.905 20.4682 201.597 19.7955 202.463 19.4591C203.328 18.9546 204.02 18.7864 204.885 18.7864C205.404 18.7864 205.924 18.7864 206.443 18.9546C206.962 19.1227 207.481 19.2909 208 19.6273L206.097 22.9909C205.924 22.8227 205.578 22.6546 205.058 22.6546C204.712 22.4864 204.193 22.4864 203.847 22.4864C203.328 22.4864 202.809 22.6546 202.463 22.8227C201.944 22.9909 201.597 23.3273 201.251 23.6637C200.905 24 200.559 24.5046 200.386 25.1773C200.213 25.5136 200.213 25.85 200.04 26.3546C200.04 26.8591 199.867 27.5318 199.867 28.5409V35.7727H196.06Z" fill="white"/>
</g>
<defs>
<clipPath id="clip0_1137_1181">
<rect width="208" height="37" fill="white" transform="translate(0 5.5)"/>
</clipPath>
</defs>
</svg>
